<mxfile host="app.diagrams.net" modified="2023-05-24T16:58:45.760Z" agent="Mozilla/5.0 (Windows NT 10.0; Win64; x64; rv:109.0) Gecko/20100101 Firefox/113.0" etag="W5mGe53xAEap8iihXUuY" version="21.3.3" type="github">
  <diagram id="v-af8QbnCEkyZ7vj-yYL" name="Page-1">
    <mxGraphModel dx="840" dy="424" grid="1" gridSize="10" guides="1" tooltips="1" connect="1" arrows="1" fold="1" page="1" pageScale="1" pageWidth="827" pageHeight="1169" math="0" shadow="0">
      <root>
        <mxCell id="0" />
        <mxCell id="1" parent="0" />
        <mxCell id="LjOwzy4WdWCfZwlX-Fml-27" value="Anagrafica" style="shape=table;startSize=30;container=1;collapsible=1;childLayout=tableLayout;fixedRows=1;rowLines=0;fontStyle=1;align=center;resizeLast=1;fillColor=#1ba1e2;fontColor=#ffffff;strokeColor=#006EAF;" parent="1" vertex="1" collapsed="1">
          <mxGeometry x="460" y="10" width="100" height="30" as="geometry">
            <mxRectangle x="50" y="170" width="250" height="210" as="alternateBounds" />
          </mxGeometry>
        </mxCell>
        <mxCell id="LjOwzy4WdWCfZwlX-Fml-28" value="" style="shape=partialRectangle;collapsible=0;dropTarget=0;pointerEvents=0;fillColor=none;points=[[0,0.5],[1,0.5]];portConstraint=eastwest;top=0;left=0;right=0;bottom=1;" parent="LjOwzy4WdWCfZwlX-Fml-27" vertex="1">
          <mxGeometry y="30" width="250" height="30" as="geometry" />
        </mxCell>
        <mxCell id="LjOwzy4WdWCfZwlX-Fml-29" value="PK" style="shape=partialRectangle;overflow=hidden;connectable=0;fillColor=none;top=0;left=0;bottom=0;right=0;fontStyle=1;" parent="LjOwzy4WdWCfZwlX-Fml-28" vertex="1">
          <mxGeometry width="30" height="30" as="geometry">
            <mxRectangle width="30" height="30" as="alternateBounds" />
          </mxGeometry>
        </mxCell>
        <mxCell id="LjOwzy4WdWCfZwlX-Fml-30" value="Codice_Fiscale" style="shape=partialRectangle;overflow=hidden;connectable=0;fillColor=none;top=0;left=0;bottom=0;right=0;align=left;spacingLeft=6;fontStyle=1;" parent="LjOwzy4WdWCfZwlX-Fml-28" vertex="1">
          <mxGeometry x="30" width="220" height="30" as="geometry">
            <mxRectangle width="220" height="30" as="alternateBounds" />
          </mxGeometry>
        </mxCell>
        <mxCell id="LjOwzy4WdWCfZwlX-Fml-31" value="" style="shape=partialRectangle;collapsible=0;dropTarget=0;pointerEvents=0;fillColor=none;points=[[0,0.5],[1,0.5]];portConstraint=eastwest;top=0;left=0;right=0;bottom=0;" parent="LjOwzy4WdWCfZwlX-Fml-27" vertex="1">
          <mxGeometry y="60" width="250" height="140" as="geometry" />
        </mxCell>
        <mxCell id="LjOwzy4WdWCfZwlX-Fml-32" value="" style="shape=partialRectangle;overflow=hidden;connectable=0;fillColor=none;top=0;left=0;bottom=0;right=0;" parent="LjOwzy4WdWCfZwlX-Fml-31" vertex="1">
          <mxGeometry width="30" height="140" as="geometry">
            <mxRectangle width="30" height="140" as="alternateBounds" />
          </mxGeometry>
        </mxCell>
        <mxCell id="LjOwzy4WdWCfZwlX-Fml-33" value="Nome&#xa;Secondo Nome&#xa;Cognome&#xa;Secondo Cognome&#xa;Data_Nascita&#xa;Sesso&#xa;Luogo_Nascita&#xa;NazionalitÃ &#xa;" style="shape=partialRectangle;overflow=hidden;connectable=0;fillColor=none;top=0;left=0;bottom=0;right=0;align=left;spacingLeft=6;" parent="LjOwzy4WdWCfZwlX-Fml-31" vertex="1">
          <mxGeometry x="30" width="220" height="140" as="geometry">
            <mxRectangle width="220" height="140" as="alternateBounds" />
          </mxGeometry>
        </mxCell>
        <mxCell id="LjOwzy4WdWCfZwlX-Fml-34" value="Studente" style="shape=table;startSize=30;container=1;collapsible=1;childLayout=tableLayout;fixedRows=1;rowLines=0;fontStyle=1;align=center;resizeLast=1;fillColor=#a20025;fontColor=#ffffff;strokeColor=#6F0000;swimlaneFillColor=default;" parent="1" vertex="1" collapsed="1">
          <mxGeometry x="309.43" y="80" width="100" height="30" as="geometry">
            <mxRectangle x="314" y="80" width="250" height="130" as="alternateBounds" />
          </mxGeometry>
        </mxCell>
        <mxCell id="LjOwzy4WdWCfZwlX-Fml-35" value="" style="shape=partialRectangle;collapsible=0;dropTarget=0;pointerEvents=0;fillColor=none;points=[[0,0.5],[1,0.5]];portConstraint=eastwest;top=0;left=0;right=0;bottom=1;" parent="LjOwzy4WdWCfZwlX-Fml-34" vertex="1">
          <mxGeometry y="30" width="250" height="30" as="geometry" />
        </mxCell>
        <mxCell id="LjOwzy4WdWCfZwlX-Fml-36" value="PK" style="shape=partialRectangle;overflow=hidden;connectable=0;top=0;left=0;bottom=0;right=0;fontStyle=1;" parent="LjOwzy4WdWCfZwlX-Fml-35" vertex="1">
          <mxGeometry width="30" height="30" as="geometry">
            <mxRectangle width="30" height="30" as="alternateBounds" />
          </mxGeometry>
        </mxCell>
        <mxCell id="LjOwzy4WdWCfZwlX-Fml-37" value="shipment_id int NOT NULL " style="shape=partialRectangle;overflow=hidden;connectable=0;top=0;left=0;bottom=0;right=0;align=left;spacingLeft=6;fontStyle=5;" parent="LjOwzy4WdWCfZwlX-Fml-35" vertex="1">
          <mxGeometry x="30" width="220" height="30" as="geometry">
            <mxRectangle width="220" height="30" as="alternateBounds" />
          </mxGeometry>
        </mxCell>
        <mxCell id="LjOwzy4WdWCfZwlX-Fml-38" value="" style="shape=partialRectangle;collapsible=0;dropTarget=0;pointerEvents=0;fillColor=none;points=[[0,0.5],[1,0.5]];portConstraint=eastwest;top=0;left=0;right=0;bottom=0;" parent="LjOwzy4WdWCfZwlX-Fml-34" vertex="1">
          <mxGeometry y="60" width="250" height="30" as="geometry" />
        </mxCell>
        <mxCell id="LjOwzy4WdWCfZwlX-Fml-39" value="FK1" style="shape=partialRectangle;overflow=hidden;connectable=0;top=0;left=0;bottom=0;right=0;" parent="LjOwzy4WdWCfZwlX-Fml-38" vertex="1">
          <mxGeometry width="30" height="30" as="geometry">
            <mxRectangle width="30" height="30" as="alternateBounds" />
          </mxGeometry>
        </mxCell>
        <mxCell id="LjOwzy4WdWCfZwlX-Fml-40" value="order_id int NOT NULL" style="shape=partialRectangle;overflow=hidden;connectable=0;top=0;left=0;bottom=0;right=0;align=left;spacingLeft=6;" parent="LjOwzy4WdWCfZwlX-Fml-38" vertex="1">
          <mxGeometry x="30" width="220" height="30" as="geometry">
            <mxRectangle width="220" height="30" as="alternateBounds" />
          </mxGeometry>
        </mxCell>
        <mxCell id="LjOwzy4WdWCfZwlX-Fml-41" value="" style="shape=partialRectangle;collapsible=0;dropTarget=0;pointerEvents=0;fillColor=none;points=[[0,0.5],[1,0.5]];portConstraint=eastwest;top=0;left=0;right=0;bottom=0;" parent="LjOwzy4WdWCfZwlX-Fml-34" vertex="1">
          <mxGeometry y="90" width="250" height="30" as="geometry" />
        </mxCell>
        <mxCell id="LjOwzy4WdWCfZwlX-Fml-42" value="" style="shape=partialRectangle;overflow=hidden;connectable=0;top=0;left=0;bottom=0;right=0;" parent="LjOwzy4WdWCfZwlX-Fml-41" vertex="1">
          <mxGeometry width="30" height="30" as="geometry">
            <mxRectangle width="30" height="30" as="alternateBounds" />
          </mxGeometry>
        </mxCell>
        <mxCell id="LjOwzy4WdWCfZwlX-Fml-43" value="shipment_date date NOT NULL" style="shape=partialRectangle;overflow=hidden;connectable=0;top=0;left=0;bottom=0;right=0;align=left;spacingLeft=6;" parent="LjOwzy4WdWCfZwlX-Fml-41" vertex="1">
          <mxGeometry x="30" width="220" height="30" as="geometry">
            <mxRectangle width="220" height="30" as="alternateBounds" />
          </mxGeometry>
        </mxCell>
        <mxCell id="LjOwzy4WdWCfZwlX-Fml-44" value="Corso" style="shape=table;startSize=30;container=1;collapsible=1;childLayout=tableLayout;fixedRows=1;rowLines=0;fontStyle=1;align=center;resizeLast=1;fillColor=#6a00ff;fontColor=#ffffff;strokeColor=#3700CC;" parent="1" vertex="1" collapsed="1">
          <mxGeometry x="309.43" y="250" width="100" height="30" as="geometry">
            <mxRectangle x="470" y="300" width="250" height="130" as="alternateBounds" />
          </mxGeometry>
        </mxCell>
        <mxCell id="LjOwzy4WdWCfZwlX-Fml-45" value="" style="shape=partialRectangle;collapsible=0;dropTarget=0;pointerEvents=0;fillColor=none;points=[[0,0.5],[1,0.5]];portConstraint=eastwest;top=0;left=0;right=0;bottom=1;" parent="LjOwzy4WdWCfZwlX-Fml-44" vertex="1">
          <mxGeometry y="30" width="250" height="30" as="geometry" />
        </mxCell>
        <mxCell id="LjOwzy4WdWCfZwlX-Fml-46" value="PK" style="shape=partialRectangle;overflow=hidden;connectable=0;fillColor=none;top=0;left=0;bottom=0;right=0;fontStyle=1;" parent="LjOwzy4WdWCfZwlX-Fml-45" vertex="1">
          <mxGeometry width="30" height="30" as="geometry">
            <mxRectangle width="30" height="30" as="alternateBounds" />
          </mxGeometry>
        </mxCell>
        <mxCell id="LjOwzy4WdWCfZwlX-Fml-47" value="shipment_id int NOT NULL " style="shape=partialRectangle;overflow=hidden;connectable=0;fillColor=none;top=0;left=0;bottom=0;right=0;align=left;spacingLeft=6;fontStyle=5;" parent="LjOwzy4WdWCfZwlX-Fml-45" vertex="1">
          <mxGeometry x="30" width="220" height="30" as="geometry">
            <mxRectangle width="220" height="30" as="alternateBounds" />
          </mxGeometry>
        </mxCell>
        <mxCell id="LjOwzy4WdWCfZwlX-Fml-48" value="" style="shape=partialRectangle;collapsible=0;dropTarget=0;pointerEvents=0;fillColor=none;points=[[0,0.5],[1,0.5]];portConstraint=eastwest;top=0;left=0;right=0;bottom=0;" parent="LjOwzy4WdWCfZwlX-Fml-44" vertex="1">
          <mxGeometry y="60" width="250" height="30" as="geometry" />
        </mxCell>
        <mxCell id="LjOwzy4WdWCfZwlX-Fml-49" value="FK1" style="shape=partialRectangle;overflow=hidden;connectable=0;fillColor=none;top=0;left=0;bottom=0;right=0;" parent="LjOwzy4WdWCfZwlX-Fml-48" vertex="1">
          <mxGeometry width="30" height="30" as="geometry">
            <mxRectangle width="30" height="30" as="alternateBounds" />
          </mxGeometry>
        </mxCell>
        <mxCell id="LjOwzy4WdWCfZwlX-Fml-50" value="order_id int NOT NULL" style="shape=partialRectangle;overflow=hidden;connectable=0;fillColor=none;top=0;left=0;bottom=0;right=0;align=left;spacingLeft=6;" parent="LjOwzy4WdWCfZwlX-Fml-48" vertex="1">
          <mxGeometry x="30" width="220" height="30" as="geometry">
            <mxRectangle width="220" height="30" as="alternateBounds" />
          </mxGeometry>
        </mxCell>
        <mxCell id="LjOwzy4WdWCfZwlX-Fml-51" value="" style="shape=partialRectangle;collapsible=0;dropTarget=0;pointerEvents=0;fillColor=none;points=[[0,0.5],[1,0.5]];portConstraint=eastwest;top=0;left=0;right=0;bottom=0;" parent="LjOwzy4WdWCfZwlX-Fml-44" vertex="1">
          <mxGeometry y="90" width="250" height="30" as="geometry" />
        </mxCell>
        <mxCell id="LjOwzy4WdWCfZwlX-Fml-52" value="" style="shape=partialRectangle;overflow=hidden;connectable=0;fillColor=none;top=0;left=0;bottom=0;right=0;" parent="LjOwzy4WdWCfZwlX-Fml-51" vertex="1">
          <mxGeometry width="30" height="30" as="geometry">
            <mxRectangle width="30" height="30" as="alternateBounds" />
          </mxGeometry>
        </mxCell>
        <mxCell id="LjOwzy4WdWCfZwlX-Fml-53" value="shipment_date date NOT NULL" style="shape=partialRectangle;overflow=hidden;connectable=0;fillColor=none;top=0;left=0;bottom=0;right=0;align=left;spacingLeft=6;" parent="LjOwzy4WdWCfZwlX-Fml-51" vertex="1">
          <mxGeometry x="30" width="220" height="30" as="geometry">
            <mxRectangle width="220" height="30" as="alternateBounds" />
          </mxGeometry>
        </mxCell>
        <mxCell id="LjOwzy4WdWCfZwlX-Fml-54" value="Insegnamenti" style="shape=table;startSize=30;container=1;collapsible=1;childLayout=tableLayout;fixedRows=1;rowLines=0;fontStyle=1;align=center;resizeLast=1;fillColor=#6a00ff;fontColor=#ffffff;strokeColor=#3700CC;" parent="1" vertex="1" collapsed="1">
          <mxGeometry x="730" y="250" width="120" height="30" as="geometry">
            <mxRectangle x="480" y="310" width="250" height="130" as="alternateBounds" />
          </mxGeometry>
        </mxCell>
        <mxCell id="LjOwzy4WdWCfZwlX-Fml-55" value="" style="shape=partialRectangle;collapsible=0;dropTarget=0;pointerEvents=0;fillColor=none;points=[[0,0.5],[1,0.5]];portConstraint=eastwest;top=0;left=0;right=0;bottom=1;" parent="LjOwzy4WdWCfZwlX-Fml-54" vertex="1">
          <mxGeometry y="30" width="250" height="30" as="geometry" />
        </mxCell>
        <mxCell id="LjOwzy4WdWCfZwlX-Fml-56" value="PK" style="shape=partialRectangle;overflow=hidden;connectable=0;fillColor=none;top=0;left=0;bottom=0;right=0;fontStyle=1;" parent="LjOwzy4WdWCfZwlX-Fml-55" vertex="1">
          <mxGeometry width="30" height="30" as="geometry">
            <mxRectangle width="30" height="30" as="alternateBounds" />
          </mxGeometry>
        </mxCell>
        <mxCell id="LjOwzy4WdWCfZwlX-Fml-57" value="shipment_id int NOT NULL " style="shape=partialRectangle;overflow=hidden;connectable=0;fillColor=none;top=0;left=0;bottom=0;right=0;align=left;spacingLeft=6;fontStyle=5;" parent="LjOwzy4WdWCfZwlX-Fml-55" vertex="1">
          <mxGeometry x="30" width="220" height="30" as="geometry">
            <mxRectangle width="220" height="30" as="alternateBounds" />
          </mxGeometry>
        </mxCell>
        <mxCell id="LjOwzy4WdWCfZwlX-Fml-58" value="" style="shape=partialRectangle;collapsible=0;dropTarget=0;pointerEvents=0;fillColor=none;points=[[0,0.5],[1,0.5]];portConstraint=eastwest;top=0;left=0;right=0;bottom=0;" parent="LjOwzy4WdWCfZwlX-Fml-54" vertex="1">
          <mxGeometry y="60" width="250" height="30" as="geometry" />
        </mxCell>
        <mxCell id="LjOwzy4WdWCfZwlX-Fml-59" value="FK1" style="shape=partialRectangle;overflow=hidden;connectable=0;fillColor=none;top=0;left=0;bottom=0;right=0;" parent="LjOwzy4WdWCfZwlX-Fml-58" vertex="1">
          <mxGeometry width="30" height="30" as="geometry">
            <mxRectangle width="30" height="30" as="alternateBounds" />
          </mxGeometry>
        </mxCell>
        <mxCell id="LjOwzy4WdWCfZwlX-Fml-60" value="order_id int NOT NULL" style="shape=partialRectangle;overflow=hidden;connectable=0;fillColor=none;top=0;left=0;bottom=0;right=0;align=left;spacingLeft=6;" parent="LjOwzy4WdWCfZwlX-Fml-58" vertex="1">
          <mxGeometry x="30" width="220" height="30" as="geometry">
            <mxRectangle width="220" height="30" as="alternateBounds" />
          </mxGeometry>
        </mxCell>
        <mxCell id="LjOwzy4WdWCfZwlX-Fml-61" value="" style="shape=partialRectangle;collapsible=0;dropTarget=0;pointerEvents=0;fillColor=none;points=[[0,0.5],[1,0.5]];portConstraint=eastwest;top=0;left=0;right=0;bottom=0;" parent="LjOwzy4WdWCfZwlX-Fml-54" vertex="1">
          <mxGeometry y="90" width="250" height="30" as="geometry" />
        </mxCell>
        <mxCell id="LjOwzy4WdWCfZwlX-Fml-62" value="" style="shape=partialRectangle;overflow=hidden;connectable=0;fillColor=none;top=0;left=0;bottom=0;right=0;" parent="LjOwzy4WdWCfZwlX-Fml-61" vertex="1">
          <mxGeometry width="30" height="30" as="geometry">
            <mxRectangle width="30" height="30" as="alternateBounds" />
          </mxGeometry>
        </mxCell>
        <mxCell id="LjOwzy4WdWCfZwlX-Fml-63" value="shipment_date date NOT NULL" style="shape=partialRectangle;overflow=hidden;connectable=0;fillColor=none;top=0;left=0;bottom=0;right=0;align=left;spacingLeft=6;" parent="LjOwzy4WdWCfZwlX-Fml-61" vertex="1">
          <mxGeometry x="30" width="220" height="30" as="geometry">
            <mxRectangle width="220" height="30" as="alternateBounds" />
          </mxGeometry>
        </mxCell>
        <mxCell id="jwbahjgd3fWMwHtl_l1T-20" style="edgeStyle=orthogonalEdgeStyle;rounded=0;orthogonalLoop=1;jettySize=auto;html=1;exitX=0;exitY=0.5;exitDx=0;exitDy=0;entryX=1;entryY=0.5;entryDx=0;entryDy=0;" parent="1" source="LjOwzy4WdWCfZwlX-Fml-66" target="LjOwzy4WdWCfZwlX-Fml-44" edge="1">
          <mxGeometry relative="1" as="geometry" />
        </mxCell>
        <mxCell id="jwbahjgd3fWMwHtl_l1T-21" style="edgeStyle=orthogonalEdgeStyle;rounded=0;orthogonalLoop=1;jettySize=auto;html=1;exitX=1;exitY=0.5;exitDx=0;exitDy=0;entryX=0;entryY=0.5;entryDx=0;entryDy=0;" parent="1" source="LjOwzy4WdWCfZwlX-Fml-66" target="LjOwzy4WdWCfZwlX-Fml-54" edge="1">
          <mxGeometry relative="1" as="geometry" />
        </mxCell>
        <mxCell id="LjOwzy4WdWCfZwlX-Fml-66" value="FORMARE" style="rhombus;whiteSpace=wrap;html=1;fillColor=#6a00ff;fontColor=#ffffff;strokeColor=#3700CC;fontStyle=3" parent="1" vertex="1">
          <mxGeometry x="550" y="240" width="60" height="50" as="geometry" />
        </mxCell>
        <mxCell id="7aZgmYXz26PjtYViczbK-13" style="edgeStyle=orthogonalEdgeStyle;rounded=0;orthogonalLoop=1;jettySize=auto;html=1;exitX=0.5;exitY=0;exitDx=0;exitDy=0;entryX=1;entryY=0.25;entryDx=0;entryDy=0;" parent="1" source="LjOwzy4WdWCfZwlX-Fml-69" target="LjOwzy4WdWCfZwlX-Fml-54" edge="1">
          <mxGeometry relative="1" as="geometry" />
        </mxCell>
        <mxCell id="7aZgmYXz26PjtYViczbK-14" style="edgeStyle=orthogonalEdgeStyle;rounded=0;orthogonalLoop=1;jettySize=auto;html=1;exitX=0.5;exitY=1;exitDx=0;exitDy=0;entryX=1;entryY=0.75;entryDx=0;entryDy=0;" parent="1" source="LjOwzy4WdWCfZwlX-Fml-69" target="LjOwzy4WdWCfZwlX-Fml-54" edge="1">
          <mxGeometry relative="1" as="geometry" />
        </mxCell>
        <mxCell id="LjOwzy4WdWCfZwlX-Fml-69" value="PropedeuticitÃ " style="rhombus;whiteSpace=wrap;html=1;fillColor=#6a00ff;fontColor=#ffffff;strokeColor=#3700CC;fontStyle=3" parent="1" vertex="1">
          <mxGeometry x="900" y="220" width="100" height="90" as="geometry" />
        </mxCell>
        <mxCell id="jwbahjgd3fWMwHtl_l1T-2" style="edgeStyle=orthogonalEdgeStyle;rounded=0;orthogonalLoop=1;jettySize=auto;html=1;exitX=0.5;exitY=0;exitDx=0;exitDy=0;entryX=0.5;entryY=1;entryDx=0;entryDy=0;" parent="1" source="LjOwzy4WdWCfZwlX-Fml-72" target="LjOwzy4WdWCfZwlX-Fml-3" edge="1">
          <mxGeometry relative="1" as="geometry" />
        </mxCell>
        <mxCell id="jwbahjgd3fWMwHtl_l1T-3" style="edgeStyle=orthogonalEdgeStyle;rounded=0;orthogonalLoop=1;jettySize=auto;html=1;exitX=0.5;exitY=1;exitDx=0;exitDy=0;entryX=0.5;entryY=0;entryDx=0;entryDy=0;" parent="1" source="LjOwzy4WdWCfZwlX-Fml-72" target="LjOwzy4WdWCfZwlX-Fml-54" edge="1">
          <mxGeometry relative="1" as="geometry" />
        </mxCell>
        <mxCell id="LjOwzy4WdWCfZwlX-Fml-72" value="" style="rhombus;whiteSpace=wrap;html=1;fillColor=#fa6800;fontColor=#000000;strokeColor=#C73500;" parent="1" vertex="1">
          <mxGeometry x="760" y="160" width="60" height="50" as="geometry" />
        </mxCell>
        <mxCell id="jwbahjgd3fWMwHtl_l1T-17" style="edgeStyle=orthogonalEdgeStyle;rounded=0;orthogonalLoop=1;jettySize=auto;html=1;exitX=0.5;exitY=0;exitDx=0;exitDy=0;entryX=0.5;entryY=1;entryDx=0;entryDy=0;" parent="1" source="LjOwzy4WdWCfZwlX-Fml-75" target="LjOwzy4WdWCfZwlX-Fml-34" edge="1">
          <mxGeometry relative="1" as="geometry" />
        </mxCell>
        <mxCell id="jwbahjgd3fWMwHtl_l1T-18" style="edgeStyle=orthogonalEdgeStyle;rounded=0;orthogonalLoop=1;jettySize=auto;html=1;exitX=0.5;exitY=1;exitDx=0;exitDy=0;entryX=0.5;entryY=0;entryDx=0;entryDy=0;" parent="1" source="LjOwzy4WdWCfZwlX-Fml-75" target="LjOwzy4WdWCfZwlX-Fml-44" edge="1">
          <mxGeometry relative="1" as="geometry" />
        </mxCell>
        <mxCell id="LjOwzy4WdWCfZwlX-Fml-75" value="FREQUENTARE" style="rhombus;whiteSpace=wrap;html=1;fillColor=#a20025;fontColor=#ffffff;strokeColor=#6F0000;fontStyle=3" parent="1" vertex="1">
          <mxGeometry x="310" y="140" width="100" height="80" as="geometry" />
        </mxCell>
        <mxCell id="LjOwzy4WdWCfZwlX-Fml-76" value="Calenderizzazioni" style="shape=table;startSize=30;container=1;collapsible=1;childLayout=tableLayout;fixedRows=1;rowLines=0;fontStyle=1;align=center;resizeLast=1;fillColor=#6a00ff;fontColor=#ffffff;strokeColor=#3700CC;" parent="1" vertex="1" collapsed="1">
          <mxGeometry x="730" y="406.5" width="120" height="30" as="geometry">
            <mxRectangle x="470" y="300" width="250" height="130" as="alternateBounds" />
          </mxGeometry>
        </mxCell>
        <mxCell id="LjOwzy4WdWCfZwlX-Fml-77" value="" style="shape=partialRectangle;collapsible=0;dropTarget=0;pointerEvents=0;fillColor=none;points=[[0,0.5],[1,0.5]];portConstraint=eastwest;top=0;left=0;right=0;bottom=1;" parent="LjOwzy4WdWCfZwlX-Fml-76" vertex="1">
          <mxGeometry y="30" width="250" height="30" as="geometry" />
        </mxCell>
        <mxCell id="LjOwzy4WdWCfZwlX-Fml-78" value="PK" style="shape=partialRectangle;overflow=hidden;connectable=0;fillColor=none;top=0;left=0;bottom=0;right=0;fontStyle=1;" parent="LjOwzy4WdWCfZwlX-Fml-77" vertex="1">
          <mxGeometry width="30" height="30" as="geometry">
            <mxRectangle width="30" height="30" as="alternateBounds" />
          </mxGeometry>
        </mxCell>
        <mxCell id="LjOwzy4WdWCfZwlX-Fml-79" value="shipment_id int NOT NULL " style="shape=partialRectangle;overflow=hidden;connectable=0;fillColor=none;top=0;left=0;bottom=0;right=0;align=left;spacingLeft=6;fontStyle=5;" parent="LjOwzy4WdWCfZwlX-Fml-77" vertex="1">
          <mxGeometry x="30" width="220" height="30" as="geometry">
            <mxRectangle width="220" height="30" as="alternateBounds" />
          </mxGeometry>
        </mxCell>
        <mxCell id="LjOwzy4WdWCfZwlX-Fml-80" value="" style="shape=partialRectangle;collapsible=0;dropTarget=0;pointerEvents=0;fillColor=none;points=[[0,0.5],[1,0.5]];portConstraint=eastwest;top=0;left=0;right=0;bottom=0;" parent="LjOwzy4WdWCfZwlX-Fml-76" vertex="1">
          <mxGeometry y="60" width="250" height="30" as="geometry" />
        </mxCell>
        <mxCell id="LjOwzy4WdWCfZwlX-Fml-81" value="FK1" style="shape=partialRectangle;overflow=hidden;connectable=0;fillColor=none;top=0;left=0;bottom=0;right=0;" parent="LjOwzy4WdWCfZwlX-Fml-80" vertex="1">
          <mxGeometry width="30" height="30" as="geometry">
            <mxRectangle width="30" height="30" as="alternateBounds" />
          </mxGeometry>
        </mxCell>
        <mxCell id="LjOwzy4WdWCfZwlX-Fml-82" value="order_id int NOT NULL" style="shape=partialRectangle;overflow=hidden;connectable=0;fillColor=none;top=0;left=0;bottom=0;right=0;align=left;spacingLeft=6;" parent="LjOwzy4WdWCfZwlX-Fml-80" vertex="1">
          <mxGeometry x="30" width="220" height="30" as="geometry">
            <mxRectangle width="220" height="30" as="alternateBounds" />
          </mxGeometry>
        </mxCell>
        <mxCell id="LjOwzy4WdWCfZwlX-Fml-83" value="" style="shape=partialRectangle;collapsible=0;dropTarget=0;pointerEvents=0;fillColor=none;points=[[0,0.5],[1,0.5]];portConstraint=eastwest;top=0;left=0;right=0;bottom=0;" parent="LjOwzy4WdWCfZwlX-Fml-76" vertex="1">
          <mxGeometry y="90" width="250" height="30" as="geometry" />
        </mxCell>
        <mxCell id="LjOwzy4WdWCfZwlX-Fml-84" value="" style="shape=partialRectangle;overflow=hidden;connectable=0;fillColor=none;top=0;left=0;bottom=0;right=0;" parent="LjOwzy4WdWCfZwlX-Fml-83" vertex="1">
          <mxGeometry width="30" height="30" as="geometry">
            <mxRectangle width="30" height="30" as="alternateBounds" />
          </mxGeometry>
        </mxCell>
        <mxCell id="LjOwzy4WdWCfZwlX-Fml-85" value="shipment_date date NOT NULL" style="shape=partialRectangle;overflow=hidden;connectable=0;fillColor=none;top=0;left=0;bottom=0;right=0;align=left;spacingLeft=6;" parent="LjOwzy4WdWCfZwlX-Fml-83" vertex="1">
          <mxGeometry x="30" width="220" height="30" as="geometry">
            <mxRectangle width="220" height="30" as="alternateBounds" />
          </mxGeometry>
        </mxCell>
        <mxCell id="LjOwzy4WdWCfZwlX-Fml-86" style="edgeStyle=orthogonalEdgeStyle;rounded=0;orthogonalLoop=1;jettySize=auto;html=1;exitX=0.5;exitY=1;exitDx=0;exitDy=0;entryX=0.5;entryY=0;entryDx=0;entryDy=0;fillColor=#6a00ff;strokeColor=#3700CC;" parent="1" source="LjOwzy4WdWCfZwlX-Fml-88" target="LjOwzy4WdWCfZwlX-Fml-76" edge="1">
          <mxGeometry relative="1" as="geometry" />
        </mxCell>
        <mxCell id="jwbahjgd3fWMwHtl_l1T-22" style="edgeStyle=orthogonalEdgeStyle;rounded=0;orthogonalLoop=1;jettySize=auto;html=1;exitX=0.5;exitY=0;exitDx=0;exitDy=0;entryX=0.5;entryY=1;entryDx=0;entryDy=0;" parent="1" source="LjOwzy4WdWCfZwlX-Fml-88" target="LjOwzy4WdWCfZwlX-Fml-54" edge="1">
          <mxGeometry relative="1" as="geometry">
            <mxPoint x="790" y="290.5" as="targetPoint" />
          </mxGeometry>
        </mxCell>
        <mxCell id="LjOwzy4WdWCfZwlX-Fml-88" value="DEFINIRE" style="rhombus;whiteSpace=wrap;html=1;fillColor=#6a00ff;fontColor=#ffffff;strokeColor=#3700CC;fontStyle=3" parent="1" vertex="1">
          <mxGeometry x="760" y="310" width="60" height="60" as="geometry" />
        </mxCell>
        <mxCell id="7aZgmYXz26PjtYViczbK-2" style="edgeStyle=orthogonalEdgeStyle;rounded=0;orthogonalLoop=1;jettySize=auto;html=1;exitX=1;exitY=0.5;exitDx=0;exitDy=0;entryX=0;entryY=0.5;entryDx=0;entryDy=0;" parent="1" source="LjOwzy4WdWCfZwlX-Fml-101" target="LjOwzy4WdWCfZwlX-Fml-76" edge="1">
          <mxGeometry relative="1" as="geometry" />
        </mxCell>
        <mxCell id="7aZgmYXz26PjtYViczbK-4" style="edgeStyle=orthogonalEdgeStyle;rounded=0;orthogonalLoop=1;jettySize=auto;html=1;exitX=0;exitY=0.5;exitDx=0;exitDy=0;entryX=0;entryY=0.5;entryDx=0;entryDy=0;" parent="1" source="LjOwzy4WdWCfZwlX-Fml-101" target="LjOwzy4WdWCfZwlX-Fml-34" edge="1">
          <mxGeometry relative="1" as="geometry">
            <Array as="points">
              <mxPoint x="280" y="422" />
              <mxPoint x="280" y="95" />
            </Array>
          </mxGeometry>
        </mxCell>
        <mxCell id="LjOwzy4WdWCfZwlX-Fml-101" value="Appello" style="rhombus;whiteSpace=wrap;html=1;fillColor=#6a00ff;fontColor=#ffffff;strokeColor=#3700CC;fontStyle=3" parent="1" vertex="1">
          <mxGeometry x="470" y="386.5" width="80" height="70" as="geometry" />
        </mxCell>
        <mxCell id="LjOwzy4WdWCfZwlX-Fml-112" value="Appello_in" style="shape=table;startSize=30;container=1;collapsible=1;childLayout=tableLayout;fixedRows=1;rowLines=0;fontStyle=1;align=center;resizeLast=1;fillColor=#6a00ff;fontColor=#ffffff;strokeColor=#3700CC;" parent="1" vertex="1" collapsed="1">
          <mxGeometry x="880" y="600" width="100" height="30" as="geometry">
            <mxRectangle x="470" y="300" width="250" height="130" as="alternateBounds" />
          </mxGeometry>
        </mxCell>
        <mxCell id="LjOwzy4WdWCfZwlX-Fml-113" value="" style="shape=partialRectangle;collapsible=0;dropTarget=0;pointerEvents=0;fillColor=none;points=[[0,0.5],[1,0.5]];portConstraint=eastwest;top=0;left=0;right=0;bottom=1;" parent="LjOwzy4WdWCfZwlX-Fml-112" vertex="1">
          <mxGeometry y="30" width="250" height="30" as="geometry" />
        </mxCell>
        <mxCell id="LjOwzy4WdWCfZwlX-Fml-114" value="PK" style="shape=partialRectangle;overflow=hidden;connectable=0;fillColor=none;top=0;left=0;bottom=0;right=0;fontStyle=1;" parent="LjOwzy4WdWCfZwlX-Fml-113" vertex="1">
          <mxGeometry width="30" height="30" as="geometry">
            <mxRectangle width="30" height="30" as="alternateBounds" />
          </mxGeometry>
        </mxCell>
        <mxCell id="LjOwzy4WdWCfZwlX-Fml-115" value="shipment_id int NOT NULL " style="shape=partialRectangle;overflow=hidden;connectable=0;fillColor=none;top=0;left=0;bottom=0;right=0;align=left;spacingLeft=6;fontStyle=5;" parent="LjOwzy4WdWCfZwlX-Fml-113" vertex="1">
          <mxGeometry x="30" width="220" height="30" as="geometry">
            <mxRectangle width="220" height="30" as="alternateBounds" />
          </mxGeometry>
        </mxCell>
        <mxCell id="LjOwzy4WdWCfZwlX-Fml-116" value="" style="shape=partialRectangle;collapsible=0;dropTarget=0;pointerEvents=0;fillColor=none;points=[[0,0.5],[1,0.5]];portConstraint=eastwest;top=0;left=0;right=0;bottom=0;" parent="LjOwzy4WdWCfZwlX-Fml-112" vertex="1">
          <mxGeometry y="60" width="250" height="30" as="geometry" />
        </mxCell>
        <mxCell id="LjOwzy4WdWCfZwlX-Fml-117" value="FK1" style="shape=partialRectangle;overflow=hidden;connectable=0;fillColor=none;top=0;left=0;bottom=0;right=0;" parent="LjOwzy4WdWCfZwlX-Fml-116" vertex="1">
          <mxGeometry width="30" height="30" as="geometry">
            <mxRectangle width="30" height="30" as="alternateBounds" />
          </mxGeometry>
        </mxCell>
        <mxCell id="LjOwzy4WdWCfZwlX-Fml-118" value="order_id int NOT NULL" style="shape=partialRectangle;overflow=hidden;connectable=0;fillColor=none;top=0;left=0;bottom=0;right=0;align=left;spacingLeft=6;" parent="LjOwzy4WdWCfZwlX-Fml-116" vertex="1">
          <mxGeometry x="30" width="220" height="30" as="geometry">
            <mxRectangle width="220" height="30" as="alternateBounds" />
          </mxGeometry>
        </mxCell>
        <mxCell id="LjOwzy4WdWCfZwlX-Fml-119" value="" style="shape=partialRectangle;collapsible=0;dropTarget=0;pointerEvents=0;fillColor=none;points=[[0,0.5],[1,0.5]];portConstraint=eastwest;top=0;left=0;right=0;bottom=0;" parent="LjOwzy4WdWCfZwlX-Fml-112" vertex="1">
          <mxGeometry y="90" width="250" height="30" as="geometry" />
        </mxCell>
        <mxCell id="LjOwzy4WdWCfZwlX-Fml-120" value="" style="shape=partialRectangle;overflow=hidden;connectable=0;fillColor=none;top=0;left=0;bottom=0;right=0;" parent="LjOwzy4WdWCfZwlX-Fml-119" vertex="1">
          <mxGeometry width="30" height="30" as="geometry">
            <mxRectangle width="30" height="30" as="alternateBounds" />
          </mxGeometry>
        </mxCell>
        <mxCell id="LjOwzy4WdWCfZwlX-Fml-121" value="shipment_date date NOT NULL" style="shape=partialRectangle;overflow=hidden;connectable=0;fillColor=none;top=0;left=0;bottom=0;right=0;align=left;spacingLeft=6;" parent="LjOwzy4WdWCfZwlX-Fml-119" vertex="1">
          <mxGeometry x="30" width="220" height="30" as="geometry">
            <mxRectangle width="220" height="30" as="alternateBounds" />
          </mxGeometry>
        </mxCell>
        <mxCell id="LjOwzy4WdWCfZwlX-Fml-122" value="Studente_in" style="shape=table;startSize=30;container=1;collapsible=1;childLayout=tableLayout;fixedRows=1;rowLines=0;fontStyle=1;align=center;resizeLast=1;fillColor=#008a00;fontColor=#ffffff;strokeColor=#005700;" parent="1" vertex="1" collapsed="1">
          <mxGeometry x="90" y="80" width="100" height="30" as="geometry">
            <mxRectangle x="90" y="80" width="250" height="130" as="alternateBounds" />
          </mxGeometry>
        </mxCell>
        <mxCell id="LjOwzy4WdWCfZwlX-Fml-123" value="" style="shape=partialRectangle;collapsible=0;dropTarget=0;pointerEvents=0;fillColor=none;points=[[0,0.5],[1,0.5]];portConstraint=eastwest;top=0;left=0;right=0;bottom=1;" parent="LjOwzy4WdWCfZwlX-Fml-122" vertex="1">
          <mxGeometry y="30" width="250" height="30" as="geometry" />
        </mxCell>
        <mxCell id="LjOwzy4WdWCfZwlX-Fml-124" value="PK" style="shape=partialRectangle;overflow=hidden;connectable=0;fillColor=none;top=0;left=0;bottom=0;right=0;fontStyle=1;" parent="LjOwzy4WdWCfZwlX-Fml-123" vertex="1">
          <mxGeometry width="30" height="30" as="geometry">
            <mxRectangle width="30" height="30" as="alternateBounds" />
          </mxGeometry>
        </mxCell>
        <mxCell id="LjOwzy4WdWCfZwlX-Fml-125" value="shipment_id int NOT NULL " style="shape=partialRectangle;overflow=hidden;connectable=0;fillColor=none;top=0;left=0;bottom=0;right=0;align=left;spacingLeft=6;fontStyle=5;" parent="LjOwzy4WdWCfZwlX-Fml-123" vertex="1">
          <mxGeometry x="30" width="220" height="30" as="geometry">
            <mxRectangle width="220" height="30" as="alternateBounds" />
          </mxGeometry>
        </mxCell>
        <mxCell id="LjOwzy4WdWCfZwlX-Fml-126" value="" style="shape=partialRectangle;collapsible=0;dropTarget=0;pointerEvents=0;fillColor=none;points=[[0,0.5],[1,0.5]];portConstraint=eastwest;top=0;left=0;right=0;bottom=0;" parent="LjOwzy4WdWCfZwlX-Fml-122" vertex="1">
          <mxGeometry y="60" width="250" height="30" as="geometry" />
        </mxCell>
        <mxCell id="LjOwzy4WdWCfZwlX-Fml-127" value="FK1" style="shape=partialRectangle;overflow=hidden;connectable=0;fillColor=none;top=0;left=0;bottom=0;right=0;" parent="LjOwzy4WdWCfZwlX-Fml-126" vertex="1">
          <mxGeometry width="30" height="30" as="geometry">
            <mxRectangle width="30" height="30" as="alternateBounds" />
          </mxGeometry>
        </mxCell>
        <mxCell id="LjOwzy4WdWCfZwlX-Fml-128" value="order_id int NOT NULL" style="shape=partialRectangle;overflow=hidden;connectable=0;fillColor=none;top=0;left=0;bottom=0;right=0;align=left;spacingLeft=6;" parent="LjOwzy4WdWCfZwlX-Fml-126" vertex="1">
          <mxGeometry x="30" width="220" height="30" as="geometry">
            <mxRectangle width="220" height="30" as="alternateBounds" />
          </mxGeometry>
        </mxCell>
        <mxCell id="LjOwzy4WdWCfZwlX-Fml-129" value="" style="shape=partialRectangle;collapsible=0;dropTarget=0;pointerEvents=0;fillColor=none;points=[[0,0.5],[1,0.5]];portConstraint=eastwest;top=0;left=0;right=0;bottom=0;" parent="LjOwzy4WdWCfZwlX-Fml-122" vertex="1">
          <mxGeometry y="90" width="250" height="30" as="geometry" />
        </mxCell>
        <mxCell id="LjOwzy4WdWCfZwlX-Fml-130" value="" style="shape=partialRectangle;overflow=hidden;connectable=0;fillColor=none;top=0;left=0;bottom=0;right=0;" parent="LjOwzy4WdWCfZwlX-Fml-129" vertex="1">
          <mxGeometry width="30" height="30" as="geometry">
            <mxRectangle width="30" height="30" as="alternateBounds" />
          </mxGeometry>
        </mxCell>
        <mxCell id="LjOwzy4WdWCfZwlX-Fml-131" value="shipment_date date NOT NULL" style="shape=partialRectangle;overflow=hidden;connectable=0;fillColor=none;top=0;left=0;bottom=0;right=0;align=left;spacingLeft=6;" parent="LjOwzy4WdWCfZwlX-Fml-129" vertex="1">
          <mxGeometry x="30" width="220" height="30" as="geometry">
            <mxRectangle width="220" height="30" as="alternateBounds" />
          </mxGeometry>
        </mxCell>
        <mxCell id="LjOwzy4WdWCfZwlX-Fml-135" style="edgeStyle=orthogonalEdgeStyle;rounded=0;orthogonalLoop=1;jettySize=auto;html=1;exitX=0.5;exitY=0;exitDx=0;exitDy=0;entryX=1;entryY=0.5;entryDx=0;entryDy=0;fillColor=#6a00ff;strokeColor=#3700CC;" parent="1" source="LjOwzy4WdWCfZwlX-Fml-137" target="LjOwzy4WdWCfZwlX-Fml-76" edge="1">
          <mxGeometry relative="1" as="geometry">
            <mxPoint x="930" y="485" as="targetPoint" />
          </mxGeometry>
        </mxCell>
        <mxCell id="LjOwzy4WdWCfZwlX-Fml-136" style="edgeStyle=orthogonalEdgeStyle;rounded=0;orthogonalLoop=1;jettySize=auto;html=1;exitX=0.5;exitY=1;exitDx=0;exitDy=0;entryX=0.5;entryY=0;entryDx=0;entryDy=0;fillColor=#6a00ff;strokeColor=#3700CC;" parent="1" source="LjOwzy4WdWCfZwlX-Fml-137" target="LjOwzy4WdWCfZwlX-Fml-112" edge="1">
          <mxGeometry relative="1" as="geometry">
            <mxPoint x="930" y="595" as="targetPoint" />
          </mxGeometry>
        </mxCell>
        <mxCell id="LjOwzy4WdWCfZwlX-Fml-137" value="" style="rhombus;whiteSpace=wrap;html=1;fillColor=#6a00ff;fontColor=#ffffff;strokeColor=#3700CC;" parent="1" vertex="1">
          <mxGeometry x="910" y="530" width="40" height="40" as="geometry" />
        </mxCell>
        <mxCell id="LjOwzy4WdWCfZwlX-Fml-138" style="edgeStyle=orthogonalEdgeStyle;rounded=0;orthogonalLoop=1;jettySize=auto;html=1;exitX=0.5;exitY=1;exitDx=0;exitDy=0;entryX=1;entryY=0.5;entryDx=0;entryDy=0;fillColor=#008a00;strokeColor=#005700;" parent="1" source="LjOwzy4WdWCfZwlX-Fml-140" target="LjOwzy4WdWCfZwlX-Fml-112" edge="1">
          <mxGeometry relative="1" as="geometry" />
        </mxCell>
        <mxCell id="LjOwzy4WdWCfZwlX-Fml-140" value="" style="rhombus;whiteSpace=wrap;html=1;fillColor=#008a00;fontColor=#ffffff;strokeColor=#005700;" parent="1" vertex="1">
          <mxGeometry x="1000" y="515" width="40" height="40" as="geometry" />
        </mxCell>
        <mxCell id="LjOwzy4WdWCfZwlX-Fml-141" value="Gerarchia" style="text;html=1;strokeColor=#d79b00;fillColor=#ffe6cc;align=center;verticalAlign=middle;whiteSpace=wrap;rounded=0;" parent="1" vertex="1">
          <mxGeometry x="339" y="10" width="60" height="30" as="geometry" />
        </mxCell>
        <mxCell id="LjOwzy4WdWCfZwlX-Fml-143" value="&lt;font style=&quot;font-size: 8px;&quot;&gt;(1:N)&lt;/font&gt;" style="text;html=1;strokeColor=none;fillColor=none;align=center;verticalAlign=middle;whiteSpace=wrap;rounded=0;" parent="1" vertex="1">
          <mxGeometry x="797" y="220" width="40" height="20" as="geometry" />
        </mxCell>
        <mxCell id="LjOwzy4WdWCfZwlX-Fml-144" value="&lt;font style=&quot;font-size: 8px;&quot;&gt;(1:3)&lt;/font&gt;" style="text;html=1;strokeColor=none;fillColor=none;align=center;verticalAlign=middle;whiteSpace=wrap;rounded=0;" parent="1" vertex="1">
          <mxGeometry x="800" y="120" width="40" height="20" as="geometry" />
        </mxCell>
        <mxCell id="LjOwzy4WdWCfZwlX-Fml-146" value="&lt;font style=&quot;font-size: 8px;&quot;&gt;(0:N)&lt;/font&gt;" style="text;html=1;strokeColor=none;fillColor=none;align=center;verticalAlign=middle;whiteSpace=wrap;rounded=0;" parent="1" vertex="1">
          <mxGeometry x="440" y="386.5" width="40" height="20" as="geometry" />
        </mxCell>
        <mxCell id="LjOwzy4WdWCfZwlX-Fml-147" value="&lt;font style=&quot;font-size: 8px;&quot;&gt;(1:N)&lt;/font&gt;" style="text;html=1;strokeColor=none;fillColor=none;align=center;verticalAlign=middle;whiteSpace=wrap;rounded=0;" parent="1" vertex="1">
          <mxGeometry x="594" y="238.5" width="40" height="20" as="geometry" />
        </mxCell>
        <mxCell id="LjOwzy4WdWCfZwlX-Fml-148" value="&lt;font style=&quot;font-size: 8px;&quot;&gt;(1:N)&lt;/font&gt;" style="text;html=1;strokeColor=none;fillColor=none;align=center;verticalAlign=middle;whiteSpace=wrap;rounded=0;" parent="1" vertex="1">
          <mxGeometry x="520" y="241" width="40" height="15" as="geometry" />
        </mxCell>
        <mxCell id="LjOwzy4WdWCfZwlX-Fml-149" value="&lt;font style=&quot;font-size: 8px;&quot;&gt;(1:1)&lt;/font&gt;" style="text;html=1;strokeColor=none;fillColor=none;align=center;verticalAlign=middle;whiteSpace=wrap;rounded=0;" parent="1" vertex="1">
          <mxGeometry x="359" y="130" width="40" height="20" as="geometry" />
        </mxCell>
        <mxCell id="LjOwzy4WdWCfZwlX-Fml-150" value="&lt;font style=&quot;font-size: 8px;&quot;&gt;(0:N)&lt;/font&gt;" style="text;html=1;strokeColor=none;fillColor=none;align=center;verticalAlign=middle;whiteSpace=wrap;rounded=0;" parent="1" vertex="1">
          <mxGeometry x="359" y="210" width="40" height="20" as="geometry" />
        </mxCell>
        <mxCell id="LjOwzy4WdWCfZwlX-Fml-153" value="Legenda:" style="swimlane;whiteSpace=wrap;html=1;" parent="1" vertex="1">
          <mxGeometry x="50" y="560" width="160" height="155" as="geometry">
            <mxRectangle x="40" y="675" width="160" height="30" as="alternateBounds" />
          </mxGeometry>
        </mxCell>
        <mxCell id="LjOwzy4WdWCfZwlX-Fml-154" value="" style="rounded=1;whiteSpace=wrap;html=1;fillColor=#6a00ff;fontColor=#ffffff;strokeColor=#3700CC;" parent="LjOwzy4WdWCfZwlX-Fml-153" vertex="1">
          <mxGeometry x="10" y="35" width="10" height="10" as="geometry" />
        </mxCell>
        <mxCell id="LjOwzy4WdWCfZwlX-Fml-155" value="&lt;div align=&quot;left&quot;&gt;Dati Carriera&lt;br&gt;&lt;/div&gt;" style="text;html=1;strokeColor=none;fillColor=none;align=left;verticalAlign=middle;whiteSpace=wrap;rounded=0;" parent="LjOwzy4WdWCfZwlX-Fml-153" vertex="1">
          <mxGeometry x="30" y="35" width="140" height="10" as="geometry" />
        </mxCell>
        <mxCell id="LjOwzy4WdWCfZwlX-Fml-156" value="" style="rounded=1;whiteSpace=wrap;html=1;fillColor=#a20025;fontColor=#ffffff;strokeColor=#6F0000;" parent="LjOwzy4WdWCfZwlX-Fml-153" vertex="1">
          <mxGeometry x="10" y="55" width="10" height="10" as="geometry" />
        </mxCell>
        <mxCell id="LjOwzy4WdWCfZwlX-Fml-157" value="Dati Studente Attivo" style="text;html=1;strokeColor=none;fillColor=none;align=left;verticalAlign=middle;whiteSpace=wrap;rounded=0;" parent="LjOwzy4WdWCfZwlX-Fml-153" vertex="1">
          <mxGeometry x="30" y="55" width="140" height="10" as="geometry" />
        </mxCell>
        <mxCell id="LjOwzy4WdWCfZwlX-Fml-158" value="" style="rounded=1;whiteSpace=wrap;html=1;fillColor=#008a00;fontColor=#ffffff;strokeColor=#005700;" parent="LjOwzy4WdWCfZwlX-Fml-153" vertex="1">
          <mxGeometry x="10" y="75" width="10" height="10" as="geometry" />
        </mxCell>
        <mxCell id="LjOwzy4WdWCfZwlX-Fml-159" value="Dati Studente Inattivo" style="text;html=1;strokeColor=none;fillColor=none;align=left;verticalAlign=middle;whiteSpace=wrap;rounded=0;" parent="LjOwzy4WdWCfZwlX-Fml-153" vertex="1">
          <mxGeometry x="30" y="75" width="140" height="10" as="geometry" />
        </mxCell>
        <mxCell id="LjOwzy4WdWCfZwlX-Fml-160" value="" style="rounded=1;whiteSpace=wrap;html=1;fillColor=#f0a30a;fontColor=#000000;strokeColor=#BD7000;" parent="LjOwzy4WdWCfZwlX-Fml-153" vertex="1">
          <mxGeometry x="10" y="95" width="10" height="10" as="geometry" />
        </mxCell>
        <mxCell id="LjOwzy4WdWCfZwlX-Fml-161" value="Dati Docente" style="text;html=1;strokeColor=none;fillColor=none;align=left;verticalAlign=middle;whiteSpace=wrap;rounded=0;" parent="LjOwzy4WdWCfZwlX-Fml-153" vertex="1">
          <mxGeometry x="30" y="95" width="140" height="10" as="geometry" />
        </mxCell>
        <mxCell id="LjOwzy4WdWCfZwlX-Fml-162" value="" style="rounded=1;whiteSpace=wrap;html=1;fillColor=#0050ef;fontColor=#ffffff;strokeColor=#001DBC;" parent="LjOwzy4WdWCfZwlX-Fml-153" vertex="1">
          <mxGeometry x="10" y="115" width="10" height="10" as="geometry" />
        </mxCell>
        <mxCell id="LjOwzy4WdWCfZwlX-Fml-163" value="Dati Segreteria" style="text;html=1;strokeColor=none;fillColor=none;align=left;verticalAlign=middle;whiteSpace=wrap;rounded=0;" parent="LjOwzy4WdWCfZwlX-Fml-153" vertex="1">
          <mxGeometry x="30" y="115" width="140" height="10" as="geometry" />
        </mxCell>
        <mxCell id="LjOwzy4WdWCfZwlX-Fml-164" value="" style="rounded=1;whiteSpace=wrap;html=1;fillColor=#1ba1e2;fontColor=#ffffff;strokeColor=#006EAF;" parent="LjOwzy4WdWCfZwlX-Fml-153" vertex="1">
          <mxGeometry x="10" y="135" width="10" height="10" as="geometry" />
        </mxCell>
        <mxCell id="LjOwzy4WdWCfZwlX-Fml-165" value="&lt;div align=&quot;left&quot;&gt;Dati Anagrafici Utenti&lt;br&gt;&lt;/div&gt;" style="text;html=1;strokeColor=none;fillColor=none;align=left;verticalAlign=middle;whiteSpace=wrap;rounded=0;" parent="LjOwzy4WdWCfZwlX-Fml-153" vertex="1">
          <mxGeometry x="30" y="135" width="140" height="10" as="geometry" />
        </mxCell>
        <mxCell id="LjOwzy4WdWCfZwlX-Fml-166" value="&lt;font style=&quot;font-size: 8px;&quot;&gt;(0:N)&lt;/font&gt;" style="text;html=1;strokeColor=none;fillColor=none;align=center;verticalAlign=middle;whiteSpace=wrap;rounded=0;" parent="1" vertex="1">
          <mxGeometry x="910" y="298.5" width="40" height="20" as="geometry" />
        </mxCell>
        <mxCell id="LjOwzy4WdWCfZwlX-Fml-167" value="&lt;font style=&quot;font-size: 8px;&quot;&gt;(1:1)&lt;/font&gt;" style="text;html=1;strokeColor=none;fillColor=none;align=center;verticalAlign=middle;whiteSpace=wrap;rounded=0;" parent="1" vertex="1">
          <mxGeometry x="786" y="356.5" width="38" height="20" as="geometry" />
        </mxCell>
        <mxCell id="LjOwzy4WdWCfZwlX-Fml-168" value="&lt;font style=&quot;font-size: 8px;&quot;&gt;(0:N)&lt;/font&gt;" style="text;html=1;strokeColor=none;fillColor=none;align=center;verticalAlign=middle;whiteSpace=wrap;rounded=0;" parent="1" vertex="1">
          <mxGeometry x="530" y="386.5" width="40" height="20" as="geometry" />
        </mxCell>
        <mxCell id="LjOwzy4WdWCfZwlX-Fml-170" value="&lt;font style=&quot;font-size: 8px;&quot;&gt;(0:n)&lt;/font&gt;" style="text;html=1;strokeColor=none;fillColor=none;align=center;verticalAlign=middle;whiteSpace=wrap;rounded=0;" parent="1" vertex="1">
          <mxGeometry x="910" y="494" width="40" height="20" as="geometry" />
        </mxCell>
        <mxCell id="LjOwzy4WdWCfZwlX-Fml-171" value="&lt;div&gt;&lt;font style=&quot;font-size: 8px;&quot;&gt;(1:1)&lt;/font&gt;&lt;/div&gt;" style="text;html=1;strokeColor=none;fillColor=none;align=center;verticalAlign=middle;whiteSpace=wrap;rounded=0;" parent="1" vertex="1">
          <mxGeometry x="910" y="555" width="40" height="20" as="geometry" />
        </mxCell>
        <mxCell id="LjOwzy4WdWCfZwlX-Fml-172" value="&lt;font style=&quot;font-size: 8px;&quot;&gt;(0:N)&lt;/font&gt;" style="text;html=1;strokeColor=none;fillColor=none;align=center;verticalAlign=middle;whiteSpace=wrap;rounded=0;" parent="1" vertex="1">
          <mxGeometry x="786" y="298.5" width="40" height="20" as="geometry" />
        </mxCell>
        <mxCell id="LjOwzy4WdWCfZwlX-Fml-174" value="&lt;font style=&quot;font-size: 8px;&quot;&gt;(0:n)&lt;/font&gt;" style="text;html=1;strokeColor=none;fillColor=none;align=center;verticalAlign=middle;whiteSpace=wrap;rounded=0;" parent="1" vertex="1">
          <mxGeometry x="1000" y="495" width="40" height="20" as="geometry" />
        </mxCell>
        <mxCell id="LjOwzy4WdWCfZwlX-Fml-175" value="&lt;font style=&quot;font-size: 8px;&quot;&gt;(1:1)&lt;/font&gt;" style="text;html=1;strokeColor=none;fillColor=none;align=center;verticalAlign=middle;whiteSpace=wrap;rounded=0;" parent="1" vertex="1">
          <mxGeometry x="1000" y="550" width="40" height="20" as="geometry" />
        </mxCell>
        <mxCell id="LjOwzy4WdWCfZwlX-Fml-13" value="Segreteria" style="shape=table;startSize=30;container=1;collapsible=1;childLayout=tableLayout;fixedRows=1;rowLines=0;fontStyle=1;align=center;resizeLast=1;fillColor=#0050ef;fontColor=#ffffff;strokeColor=#001DBC;" parent="1" vertex="1" collapsed="1">
          <mxGeometry x="540" y="80" width="100" height="30" as="geometry">
            <mxRectangle x="450" y="280" width="250" height="130" as="alternateBounds" />
          </mxGeometry>
        </mxCell>
        <mxCell id="LjOwzy4WdWCfZwlX-Fml-14" value="" style="shape=partialRectangle;collapsible=0;dropTarget=0;pointerEvents=0;fillColor=none;points=[[0,0.5],[1,0.5]];portConstraint=eastwest;top=0;left=0;right=0;bottom=1;" parent="LjOwzy4WdWCfZwlX-Fml-13" vertex="1">
          <mxGeometry y="30" width="250" height="30" as="geometry" />
        </mxCell>
        <mxCell id="LjOwzy4WdWCfZwlX-Fml-15" value="PK" style="shape=partialRectangle;overflow=hidden;connectable=0;fillColor=none;top=0;left=0;bottom=0;right=0;fontStyle=1;" parent="LjOwzy4WdWCfZwlX-Fml-14" vertex="1">
          <mxGeometry width="30" height="30" as="geometry">
            <mxRectangle width="30" height="30" as="alternateBounds" />
          </mxGeometry>
        </mxCell>
        <mxCell id="LjOwzy4WdWCfZwlX-Fml-16" value="shipment_id int NOT NULL " style="shape=partialRectangle;overflow=hidden;connectable=0;fillColor=none;top=0;left=0;bottom=0;right=0;align=left;spacingLeft=6;fontStyle=5;" parent="LjOwzy4WdWCfZwlX-Fml-14" vertex="1">
          <mxGeometry x="30" width="220" height="30" as="geometry">
            <mxRectangle width="220" height="30" as="alternateBounds" />
          </mxGeometry>
        </mxCell>
        <mxCell id="LjOwzy4WdWCfZwlX-Fml-17" value="" style="shape=partialRectangle;collapsible=0;dropTarget=0;pointerEvents=0;fillColor=none;points=[[0,0.5],[1,0.5]];portConstraint=eastwest;top=0;left=0;right=0;bottom=0;" parent="LjOwzy4WdWCfZwlX-Fml-13" vertex="1">
          <mxGeometry y="60" width="250" height="30" as="geometry" />
        </mxCell>
        <mxCell id="LjOwzy4WdWCfZwlX-Fml-18" value="FK1" style="shape=partialRectangle;overflow=hidden;connectable=0;fillColor=none;top=0;left=0;bottom=0;right=0;" parent="LjOwzy4WdWCfZwlX-Fml-17" vertex="1">
          <mxGeometry width="30" height="30" as="geometry">
            <mxRectangle width="30" height="30" as="alternateBounds" />
          </mxGeometry>
        </mxCell>
        <mxCell id="LjOwzy4WdWCfZwlX-Fml-19" value="order_id int NOT NULL" style="shape=partialRectangle;overflow=hidden;connectable=0;fillColor=none;top=0;left=0;bottom=0;right=0;align=left;spacingLeft=6;" parent="LjOwzy4WdWCfZwlX-Fml-17" vertex="1">
          <mxGeometry x="30" width="220" height="30" as="geometry">
            <mxRectangle width="220" height="30" as="alternateBounds" />
          </mxGeometry>
        </mxCell>
        <mxCell id="LjOwzy4WdWCfZwlX-Fml-20" value="" style="shape=partialRectangle;collapsible=0;dropTarget=0;pointerEvents=0;fillColor=none;points=[[0,0.5],[1,0.5]];portConstraint=eastwest;top=0;left=0;right=0;bottom=0;" parent="LjOwzy4WdWCfZwlX-Fml-13" vertex="1">
          <mxGeometry y="90" width="250" height="30" as="geometry" />
        </mxCell>
        <mxCell id="LjOwzy4WdWCfZwlX-Fml-21" value="" style="shape=partialRectangle;overflow=hidden;connectable=0;fillColor=none;top=0;left=0;bottom=0;right=0;" parent="LjOwzy4WdWCfZwlX-Fml-20" vertex="1">
          <mxGeometry width="30" height="30" as="geometry">
            <mxRectangle width="30" height="30" as="alternateBounds" />
          </mxGeometry>
        </mxCell>
        <mxCell id="LjOwzy4WdWCfZwlX-Fml-22" value="shipment_date date NOT NULL" style="shape=partialRectangle;overflow=hidden;connectable=0;fillColor=none;top=0;left=0;bottom=0;right=0;align=left;spacingLeft=6;" parent="LjOwzy4WdWCfZwlX-Fml-20" vertex="1">
          <mxGeometry x="30" width="220" height="30" as="geometry">
            <mxRectangle width="220" height="30" as="alternateBounds" />
          </mxGeometry>
        </mxCell>
        <mxCell id="LjOwzy4WdWCfZwlX-Fml-3" value="Docente" style="shape=table;startSize=30;container=1;collapsible=1;childLayout=tableLayout;fixedRows=1;rowLines=0;fontStyle=1;align=center;resizeLast=1;fillColor=#fa6800;strokeColor=#C73500;fontColor=#FFFFFF;swimlaneFillColor=none;" parent="1" vertex="1" collapsed="1">
          <mxGeometry x="745" y="80" width="90" height="30" as="geometry">
            <mxRectangle x="50" y="300" width="250" height="130" as="alternateBounds" />
          </mxGeometry>
        </mxCell>
        <mxCell id="LjOwzy4WdWCfZwlX-Fml-4" value="" style="shape=partialRectangle;collapsible=0;dropTarget=0;pointerEvents=0;fillColor=none;points=[[0,0.5],[1,0.5]];portConstraint=eastwest;top=0;left=0;right=0;bottom=1;" parent="LjOwzy4WdWCfZwlX-Fml-3" vertex="1">
          <mxGeometry y="30" width="250" height="30" as="geometry" />
        </mxCell>
        <mxCell id="LjOwzy4WdWCfZwlX-Fml-5" value="PK" style="shape=partialRectangle;overflow=hidden;connectable=0;fillColor=none;top=0;left=0;bottom=0;right=0;fontStyle=1;" parent="LjOwzy4WdWCfZwlX-Fml-4" vertex="1">
          <mxGeometry width="30" height="30" as="geometry">
            <mxRectangle width="30" height="30" as="alternateBounds" />
          </mxGeometry>
        </mxCell>
        <mxCell id="LjOwzy4WdWCfZwlX-Fml-6" value="order_id int NOT NULL " style="shape=partialRectangle;overflow=hidden;connectable=0;fillColor=none;top=0;left=0;bottom=0;right=0;align=left;spacingLeft=6;fontStyle=5;" parent="LjOwzy4WdWCfZwlX-Fml-4" vertex="1">
          <mxGeometry x="30" width="220" height="30" as="geometry">
            <mxRectangle width="220" height="30" as="alternateBounds" />
          </mxGeometry>
        </mxCell>
        <mxCell id="LjOwzy4WdWCfZwlX-Fml-7" value="" style="shape=partialRectangle;collapsible=0;dropTarget=0;pointerEvents=0;fillColor=none;points=[[0,0.5],[1,0.5]];portConstraint=eastwest;top=0;left=0;right=0;bottom=0;" parent="LjOwzy4WdWCfZwlX-Fml-3" vertex="1">
          <mxGeometry y="60" width="250" height="30" as="geometry" />
        </mxCell>
        <mxCell id="LjOwzy4WdWCfZwlX-Fml-8" value="FK1" style="shape=partialRectangle;overflow=hidden;connectable=0;fillColor=none;top=0;left=0;bottom=0;right=0;" parent="LjOwzy4WdWCfZwlX-Fml-7" vertex="1">
          <mxGeometry width="30" height="30" as="geometry">
            <mxRectangle width="30" height="30" as="alternateBounds" />
          </mxGeometry>
        </mxCell>
        <mxCell id="LjOwzy4WdWCfZwlX-Fml-9" value="customer_id int NOT NULL" style="shape=partialRectangle;overflow=hidden;connectable=0;fillColor=none;top=0;left=0;bottom=0;right=0;align=left;spacingLeft=6;" parent="LjOwzy4WdWCfZwlX-Fml-7" vertex="1">
          <mxGeometry x="30" width="220" height="30" as="geometry">
            <mxRectangle width="220" height="30" as="alternateBounds" />
          </mxGeometry>
        </mxCell>
        <mxCell id="LjOwzy4WdWCfZwlX-Fml-10" value="" style="shape=partialRectangle;collapsible=0;dropTarget=0;pointerEvents=0;fillColor=none;points=[[0,0.5],[1,0.5]];portConstraint=eastwest;top=0;left=0;right=0;bottom=0;" parent="LjOwzy4WdWCfZwlX-Fml-3" vertex="1">
          <mxGeometry y="90" width="250" height="30" as="geometry" />
        </mxCell>
        <mxCell id="LjOwzy4WdWCfZwlX-Fml-11" value="" style="shape=partialRectangle;overflow=hidden;connectable=0;fillColor=none;top=0;left=0;bottom=0;right=0;" parent="LjOwzy4WdWCfZwlX-Fml-10" vertex="1">
          <mxGeometry width="30" height="30" as="geometry">
            <mxRectangle width="30" height="30" as="alternateBounds" />
          </mxGeometry>
        </mxCell>
        <mxCell id="LjOwzy4WdWCfZwlX-Fml-12" value="order_date date NOT NULL" style="shape=partialRectangle;overflow=hidden;connectable=0;fillColor=none;top=0;left=0;bottom=0;right=0;align=left;spacingLeft=6;" parent="LjOwzy4WdWCfZwlX-Fml-10" vertex="1">
          <mxGeometry x="30" width="220" height="30" as="geometry">
            <mxRectangle width="220" height="30" as="alternateBounds" />
          </mxGeometry>
        </mxCell>
        <mxCell id="LjOwzy4WdWCfZwlX-Fml-177" value="" style="edgeStyle=orthogonalEdgeStyle;rounded=0;orthogonalLoop=1;jettySize=auto;html=1;exitX=0.5;exitY=0;exitDx=0;exitDy=0;entryX=1;entryY=0.25;entryDx=0;entryDy=0;fillColor=#008a00;strokeColor=#005700;endArrow=none;" parent="1" source="LjOwzy4WdWCfZwlX-Fml-140" target="LjOwzy4WdWCfZwlX-Fml-3" edge="1">
          <mxGeometry relative="1" as="geometry">
            <mxPoint x="640" y="87.5" as="targetPoint" />
            <mxPoint x="1020" y="515" as="sourcePoint" />
          </mxGeometry>
        </mxCell>
        <mxCell id="LjOwzy4WdWCfZwlX-Fml-179" value="" style="endArrow=classic;html=1;entryX=0.5;entryY=0;entryDx=0;entryDy=0;exitX=0.5;exitY=1;exitDx=0;exitDy=0;" parent="1" source="LjOwzy4WdWCfZwlX-Fml-27" target="LjOwzy4WdWCfZwlX-Fml-122" edge="1">
          <mxGeometry width="50" height="50" relative="1" as="geometry">
            <mxPoint x="20" y="110" as="sourcePoint" />
            <mxPoint x="70" y="60" as="targetPoint" />
            <Array as="points">
              <mxPoint x="510" y="60" />
              <mxPoint x="140" y="60" />
            </Array>
          </mxGeometry>
        </mxCell>
        <mxCell id="LjOwzy4WdWCfZwlX-Fml-180" value="" style="endArrow=classic;html=1;exitX=0.5;exitY=1;exitDx=0;exitDy=0;entryX=0.5;entryY=0;entryDx=0;entryDy=0;" parent="1" source="LjOwzy4WdWCfZwlX-Fml-27" target="LjOwzy4WdWCfZwlX-Fml-34" edge="1">
          <mxGeometry width="50" height="50" relative="1" as="geometry">
            <mxPoint x="430" y="190" as="sourcePoint" />
            <mxPoint x="480" y="140" as="targetPoint" />
            <Array as="points">
              <mxPoint x="510" y="70" />
              <mxPoint x="364" y="70" />
            </Array>
          </mxGeometry>
        </mxCell>
        <mxCell id="LjOwzy4WdWCfZwlX-Fml-181" value="" style="endArrow=classic;html=1;exitX=0.5;exitY=1;exitDx=0;exitDy=0;entryX=0.5;entryY=0;entryDx=0;entryDy=0;" parent="1" source="LjOwzy4WdWCfZwlX-Fml-27" edge="1">
          <mxGeometry width="50" height="50" relative="1" as="geometry">
            <mxPoint x="736" y="40" as="sourcePoint" />
            <mxPoint x="590" y="80" as="targetPoint" />
            <Array as="points">
              <mxPoint x="510" y="70" />
              <mxPoint x="590" y="70" />
            </Array>
          </mxGeometry>
        </mxCell>
        <mxCell id="LjOwzy4WdWCfZwlX-Fml-182" value="" style="endArrow=classic;html=1;exitX=0.5;exitY=1;exitDx=0;exitDy=0;entryX=0.5;entryY=0;entryDx=0;entryDy=0;" parent="1" source="LjOwzy4WdWCfZwlX-Fml-27" edge="1">
          <mxGeometry width="50" height="50" relative="1" as="geometry">
            <mxPoint x="938" y="40" as="sourcePoint" />
            <mxPoint x="792" y="80" as="targetPoint" />
            <Array as="points">
              <mxPoint x="510" y="60" />
              <mxPoint x="792" y="60" />
            </Array>
          </mxGeometry>
        </mxCell>
        <mxCell id="jwbahjgd3fWMwHtl_l1T-4" value="INSEGNARE" style="text;html=1;strokeColor=none;fillColor=none;align=center;verticalAlign=middle;whiteSpace=wrap;rounded=0;fontColor=#FFFFFF;fontStyle=3" parent="1" vertex="1">
          <mxGeometry x="742" y="175" width="98" height="17.5" as="geometry" />
        </mxCell>
        <mxCell id="jwbahjgd3fWMwHtl_l1T-10" value="&lt;font style=&quot;font-size: 8px;&quot;&gt;(0:N)&lt;/font&gt;" style="text;html=1;strokeColor=none;fillColor=none;align=center;verticalAlign=middle;whiteSpace=wrap;rounded=0;" parent="1" vertex="1">
          <mxGeometry x="910" y="210" width="40" height="20" as="geometry" />
        </mxCell>
      </root>
    </mxGraphModel>
  </diagram>
</mxfile>
